<svg width="1716" height="441" viewBox="0 0 1716 441" fill="none" xmlns="http://www.w3.org/2000/svg">
<path opacity="0.1" d="M0 92.04H60.32V252.2C60.32 328.12 122.2 390 198.12 390H381.68V297.96H198.12C185.989 297.942 174.36 293.115 165.782 284.538C157.205 275.96 152.378 264.331 152.36 252.2V92.04H381.68V0H0V92.04ZM682.24 143H544.44V0H452.4V143H392.08V235.04H452.4V277.68C452.4 338 413.92 355.68 407.68 358.28L447.72 440.44C475.28 427.44 544.44 384.28 544.44 277.68V235.04H682.24V297.96H627.12V390H773.76V0H682.24V143ZM1079 0H804.96V92.04H864.76V282.88C864.76 341.64 913.12 390 971.88 390H1186.64V107.12C1186.64 48.36 1138.28 0 1079 0ZM1094.6 297.96H971.88C967.881 297.957 964.047 296.367 961.22 293.54C958.393 290.713 956.803 286.879 956.8 282.88V92.04H1079C1087.32 92.04 1094.6 98.8 1094.6 107.12V297.96ZM1623.44 290.68C1572.48 272.48 1536.08 224.12 1536.08 167.44V0H1444.04V167.44C1444.04 223.08 1408.68 270.92 1359.28 289.64V0H1207.44V92.04H1267.24V390H1313C1347.21 390.051 1380.97 382.192 1411.64 367.038C1442.31 351.883 1469.06 329.844 1489.8 302.64C1530.88 355.68 1594.84 390 1666.6 390H1715.48V0H1623.44V290.68Z" fill="#F1DA6F"/>
</svg>
