<svg width="38" height="38" viewBox="0 0 38 38" fill="none" xmlns="http://www.w3.org/2000/svg">
<path d="M19 0C13.9609 0 9.12816 2.00178 5.56497 5.56497C2.00178 9.12816 0 13.9609 0 19C0 24.0391 2.00178 28.8718 5.56497 32.435C9.12816 35.9982 13.9609 38 19 38C24.0391 38 28.8718 35.9982 32.435 32.435C35.9982 28.8718 38 24.0391 38 19C38 13.9609 35.9982 9.12816 32.435 5.56497C28.8718 2.00178 24.0391 0 19 0Z" fill="#40B3E0"/>
<path d="M28.247 10.9303L24.853 28.0403C24.7854 28.2052 24.6835 28.3537 24.5541 28.4762C24.4247 28.5986 24.2707 28.6922 24.1023 28.7505C23.9339 28.8089 23.7551 28.8307 23.5776 28.8147C23.4002 28.7986 23.2282 28.7449 23.073 28.6573L15.242 22.6573L12.394 21.2813L7.60004 19.6673C7.60004 19.6673 6.86404 19.4063 6.79304 18.8363C6.72204 18.2663 7.62405 17.9583 7.62405 17.9583L26.68 10.4833C26.68 10.4833 28.246 9.79529 28.246 10.9343" fill="white"/>
<path d="M14.6395 27.8468C14.6395 27.8468 14.4105 27.8258 14.1265 26.9238C13.8425 26.0218 12.3945 21.2758 12.3945 21.2758L23.9045 13.9668C23.9045 13.9668 24.5695 13.5668 24.5455 13.9668C24.5455 13.9668 24.6645 14.0378 24.3085 14.3668C23.9525 14.6958 15.2675 22.5068 15.2675 22.5068" fill="#D2E5F1"/>
<path d="M18.2437 24.9546L15.1437 27.7786C15.0714 27.8308 14.9873 27.8645 14.8989 27.8765C14.8104 27.8886 14.7204 27.8786 14.6367 27.8476L15.2297 22.6016" fill="#B5CFE4"/>
</svg>
